<mxfile host="app.diagrams.net" modified="2023-11-24T04:17:52.456Z" agent="Mozilla/5.0 (Macintosh; Intel Mac OS X 10_15_7) AppleWebKit/537.36 (KHTML, like Gecko) Chrome/119.0.0.0 Safari/537.36" etag="vXQAaNGyLoUkAHoOSh1Z" version="22.1.3" type="device">
  <diagram name="Page-1" id="cptKTX64IQxTQDxhCR0L">
    <mxGraphModel dx="2284" dy="766" grid="1" gridSize="10" guides="1" tooltips="1" connect="1" arrows="1" fold="1" page="1" pageScale="1" pageWidth="850" pageHeight="1100" math="0" shadow="0">
      <root>
        <mxCell id="0" />
        <mxCell id="1" parent="0" />
        <mxCell id="Q-evMV2b1DWHDbH5_gkm-11" style="edgeStyle=orthogonalEdgeStyle;rounded=0;orthogonalLoop=1;jettySize=auto;html=1;exitX=0.5;exitY=1;exitDx=0;exitDy=0;" edge="1" parent="1" source="Q-evMV2b1DWHDbH5_gkm-2" target="Q-evMV2b1DWHDbH5_gkm-3">
          <mxGeometry relative="1" as="geometry" />
        </mxCell>
        <mxCell id="Q-evMV2b1DWHDbH5_gkm-20" style="edgeStyle=orthogonalEdgeStyle;rounded=0;orthogonalLoop=1;jettySize=auto;html=1;exitX=0.5;exitY=1;exitDx=0;exitDy=0;" edge="1" parent="1" source="Q-evMV2b1DWHDbH5_gkm-2" target="Q-evMV2b1DWHDbH5_gkm-19">
          <mxGeometry relative="1" as="geometry" />
        </mxCell>
        <mxCell id="Q-evMV2b1DWHDbH5_gkm-2" value="CONTENT" style="ellipse;whiteSpace=wrap;html=1;aspect=fixed;" vertex="1" parent="1">
          <mxGeometry x="380" y="60" width="80" height="80" as="geometry" />
        </mxCell>
        <mxCell id="Q-evMV2b1DWHDbH5_gkm-17" style="edgeStyle=orthogonalEdgeStyle;rounded=0;orthogonalLoop=1;jettySize=auto;html=1;exitX=0.5;exitY=1;exitDx=0;exitDy=0;entryX=0.5;entryY=0;entryDx=0;entryDy=0;" edge="1" parent="1" source="Q-evMV2b1DWHDbH5_gkm-3" target="Q-evMV2b1DWHDbH5_gkm-5">
          <mxGeometry relative="1" as="geometry" />
        </mxCell>
        <mxCell id="Q-evMV2b1DWHDbH5_gkm-18" style="edgeStyle=orthogonalEdgeStyle;rounded=0;orthogonalLoop=1;jettySize=auto;html=1;exitX=0.5;exitY=1;exitDx=0;exitDy=0;entryX=0.5;entryY=0;entryDx=0;entryDy=0;" edge="1" parent="1" source="Q-evMV2b1DWHDbH5_gkm-3" target="Q-evMV2b1DWHDbH5_gkm-7">
          <mxGeometry relative="1" as="geometry" />
        </mxCell>
        <mxCell id="Q-evMV2b1DWHDbH5_gkm-21" style="edgeStyle=orthogonalEdgeStyle;rounded=0;orthogonalLoop=1;jettySize=auto;html=1;exitX=0.5;exitY=1;exitDx=0;exitDy=0;entryX=0.5;entryY=0;entryDx=0;entryDy=0;" edge="1" parent="1">
          <mxGeometry relative="1" as="geometry">
            <mxPoint x="300" y="270" as="sourcePoint" />
            <mxPoint x="150" y="495" as="targetPoint" />
            <Array as="points">
              <mxPoint x="300" y="315" />
              <mxPoint x="150" y="315" />
            </Array>
          </mxGeometry>
        </mxCell>
        <mxCell id="Q-evMV2b1DWHDbH5_gkm-27" style="edgeStyle=orthogonalEdgeStyle;rounded=0;orthogonalLoop=1;jettySize=auto;html=1;exitX=0.5;exitY=1;exitDx=0;exitDy=0;entryX=0.5;entryY=0;entryDx=0;entryDy=0;" edge="1" parent="1" source="Q-evMV2b1DWHDbH5_gkm-3" target="Q-evMV2b1DWHDbH5_gkm-26">
          <mxGeometry relative="1" as="geometry" />
        </mxCell>
        <mxCell id="Q-evMV2b1DWHDbH5_gkm-3" value="NEWS" style="shape=trapezoid;perimeter=trapezoidPerimeter;whiteSpace=wrap;html=1;fixedSize=1;" vertex="1" parent="1">
          <mxGeometry x="240" y="195" width="120" height="60" as="geometry" />
        </mxCell>
        <mxCell id="Q-evMV2b1DWHDbH5_gkm-5" value="MH" style="rounded=1;whiteSpace=wrap;html=1;" vertex="1" parent="1">
          <mxGeometry x="160" y="370" width="120" height="60" as="geometry" />
        </mxCell>
        <mxCell id="Q-evMV2b1DWHDbH5_gkm-6" value="SA training" style="rounded=1;whiteSpace=wrap;html=1;" vertex="1" parent="1">
          <mxGeometry x="510" y="370" width="120" height="60" as="geometry" />
        </mxCell>
        <mxCell id="Q-evMV2b1DWHDbH5_gkm-7" value="Social" style="rounded=1;whiteSpace=wrap;html=1;" vertex="1" parent="1">
          <mxGeometry x="320" y="370" width="120" height="60" as="geometry" />
        </mxCell>
        <mxCell id="Q-evMV2b1DWHDbH5_gkm-8" value="Work" style="rounded=1;whiteSpace=wrap;html=1;" vertex="1" parent="1">
          <mxGeometry x="90" y="480" width="120" height="60" as="geometry" />
        </mxCell>
        <mxCell id="Q-evMV2b1DWHDbH5_gkm-9" value="Training Progress and Tricks" style="rounded=1;whiteSpace=wrap;html=1;" vertex="1" parent="1">
          <mxGeometry x="700" y="370" width="120" height="60" as="geometry" />
        </mxCell>
        <mxCell id="Q-evMV2b1DWHDbH5_gkm-10" value="" style="endArrow=none;html=1;rounded=0;" edge="1" parent="1">
          <mxGeometry width="50" height="50" relative="1" as="geometry">
            <mxPoint y="160" as="sourcePoint" />
            <mxPoint x="854" y="160" as="targetPoint" />
            <Array as="points">
              <mxPoint x="80" y="160" />
            </Array>
          </mxGeometry>
        </mxCell>
        <mxCell id="Q-evMV2b1DWHDbH5_gkm-12" value="" style="endArrow=none;html=1;rounded=0;" edge="1" parent="1">
          <mxGeometry width="50" height="50" relative="1" as="geometry">
            <mxPoint x="-2" y="280" as="sourcePoint" />
            <mxPoint x="852" y="280" as="targetPoint" />
            <Array as="points">
              <mxPoint x="78" y="280" />
            </Array>
          </mxGeometry>
        </mxCell>
        <mxCell id="Q-evMV2b1DWHDbH5_gkm-13" value="EPIC" style="text;html=1;align=center;verticalAlign=middle;resizable=0;points=[];autosize=1;strokeColor=none;fillColor=none;" vertex="1" parent="1">
          <mxGeometry x="42" y="100" width="60" height="30" as="geometry" />
        </mxCell>
        <mxCell id="Q-evMV2b1DWHDbH5_gkm-14" value="STORY" style="text;html=1;align=center;verticalAlign=middle;resizable=0;points=[];autosize=1;strokeColor=none;fillColor=none;" vertex="1" parent="1">
          <mxGeometry x="37" y="210" width="70" height="30" as="geometry" />
        </mxCell>
        <mxCell id="Q-evMV2b1DWHDbH5_gkm-15" value="SUB TASKS" style="text;html=1;align=center;verticalAlign=middle;resizable=0;points=[];autosize=1;strokeColor=none;fillColor=none;" vertex="1" parent="1">
          <mxGeometry x="22" y="330" width="100" height="30" as="geometry" />
        </mxCell>
        <mxCell id="Q-evMV2b1DWHDbH5_gkm-22" style="edgeStyle=orthogonalEdgeStyle;rounded=0;orthogonalLoop=1;jettySize=auto;html=1;exitX=0.5;exitY=1;exitDx=0;exitDy=0;entryX=0.5;entryY=0;entryDx=0;entryDy=0;" edge="1" parent="1" source="Q-evMV2b1DWHDbH5_gkm-19" target="Q-evMV2b1DWHDbH5_gkm-6">
          <mxGeometry relative="1" as="geometry" />
        </mxCell>
        <mxCell id="Q-evMV2b1DWHDbH5_gkm-23" style="edgeStyle=orthogonalEdgeStyle;rounded=0;orthogonalLoop=1;jettySize=auto;html=1;exitX=0.5;exitY=1;exitDx=0;exitDy=0;" edge="1" parent="1" source="Q-evMV2b1DWHDbH5_gkm-19" target="Q-evMV2b1DWHDbH5_gkm-9">
          <mxGeometry relative="1" as="geometry" />
        </mxCell>
        <mxCell id="Q-evMV2b1DWHDbH5_gkm-25" style="edgeStyle=orthogonalEdgeStyle;rounded=0;orthogonalLoop=1;jettySize=auto;html=1;exitX=0.5;exitY=1;exitDx=0;exitDy=0;entryX=0.5;entryY=0;entryDx=0;entryDy=0;" edge="1" parent="1" source="Q-evMV2b1DWHDbH5_gkm-19" target="Q-evMV2b1DWHDbH5_gkm-24">
          <mxGeometry relative="1" as="geometry" />
        </mxCell>
        <mxCell id="Q-evMV2b1DWHDbH5_gkm-19" value="Huxley News" style="shape=trapezoid;perimeter=trapezoidPerimeter;whiteSpace=wrap;html=1;fixedSize=1;" vertex="1" parent="1">
          <mxGeometry x="610" y="195" width="120" height="60" as="geometry" />
        </mxCell>
        <mxCell id="Q-evMV2b1DWHDbH5_gkm-24" value="Treat &amp;amp; Toy Reviews" style="rounded=1;whiteSpace=wrap;html=1;" vertex="1" parent="1">
          <mxGeometry x="610" y="480" width="120" height="60" as="geometry" />
        </mxCell>
        <mxCell id="Q-evMV2b1DWHDbH5_gkm-26" value="Health" style="rounded=1;whiteSpace=wrap;html=1;" vertex="1" parent="1">
          <mxGeometry x="240" y="480" width="120" height="60" as="geometry" />
        </mxCell>
      </root>
    </mxGraphModel>
  </diagram>
</mxfile>
